<?xml version="1.0" encoding="UTF-8"?>
<svg version="1.1" xmlns="http://www.w3.org/2000/svg" width="512" height="512">
<path d="M0 0 C0.99357513 -0.00671722 1.98715027 -0.01343445 3.01083374 -0.02035522 C6.27289955 -0.03923638 9.53475803 -0.04325622 12.796875 -0.04541016 C15.09684326 -0.05185116 17.39681072 -0.05858044 19.69677734 -0.06558228 C24.51824841 -0.07753504 29.33964799 -0.08126578 34.16113281 -0.08007812 C40.26346009 -0.0798765 46.36531346 -0.10702538 52.4675293 -0.14162254 C57.22442616 -0.16415924 61.98121446 -0.16790739 66.73815918 -0.16685867 C68.98304862 -0.16918056 71.22794271 -0.17780485 73.47277832 -0.19352341 C95.67099687 -0.33424823 117.48703567 2.00144557 138.546875 9.29052734 C140.19236328 9.84160156 140.19236328 9.84160156 141.87109375 10.40380859 C156.61996805 15.68292596 169.51912555 23.3418603 181.546875 33.29052734 C182.42214844 33.97244141 183.29742187 34.65435547 184.19921875 35.35693359 C187.77124187 38.29894931 190.58475392 41.7507312 193.546875 45.29052734 C194.50980469 46.40427734 194.50980469 46.40427734 195.4921875 47.54052734 C215.91450787 71.88713673 224.45062149 103.8765779 222.2734375 135.22802734 C218.79687622 173.31728666 199.36941169 204.74579047 170.74609375 229.37646484 C168.14295618 231.64207303 165.59528776 233.96356287 163.046875 236.29052734 C157.54329893 241.30472934 151.98553333 246.23783628 146.29296875 251.03662109 C131.55973654 263.48352317 116.95958523 276.28134375 113.546875 296.29052734 C113.44831183 298.27722834 113.39282746 300.2663454 113.37109375 302.25537109 C113.34724609 303.38523437 113.32339844 304.51509766 113.29882812 305.67919922 C113.25593364 308.04099561 113.22464277 310.40303186 113.20507812 312.76513672 C112.94136031 323.52850326 112.94136031 323.52850326 108.546875 328.29052734 C104.18170535 331.58667586 100.80230467 333.40915892 95.32966614 333.43096924 C94.04083527 333.43953445 94.04083527 333.43953445 92.72596741 333.44827271 C91.31630959 333.44994949 91.31630959 333.44994949 89.87817383 333.45166016 C88.88596832 333.45662506 87.89376282 333.46158997 86.87149048 333.46670532 C83.58228872 333.48133394 80.29313523 333.48813094 77.00390625 333.49365234 C74.71807351 333.49940422 72.43224079 333.50516195 70.14640808 333.51092529 C65.3488238 333.52143796 60.55125629 333.52727856 55.75366211 333.53076172 C49.61470623 333.53624003 43.47597287 333.56025295 37.33708668 333.58873367 C32.6126593 333.60738671 27.88828517 333.61256713 23.16382408 333.6140976 C20.90127028 333.61711977 18.63871733 333.62513356 16.37619972 333.63828278 C13.20481242 333.65539492 10.03396395 333.65344995 6.86254883 333.64697266 C5.9328981 333.65618744 5.00324738 333.66540222 4.04542542 333.67489624 C-2.04499914 333.63605765 -8.27219805 333.17711306 -13.01414776 328.87395096 C-16.4029259 324.97568721 -17.57093573 321.85942188 -17.61425781 316.79760742 C-17.62386536 315.88848099 -17.6334729 314.97935455 -17.64337158 314.04267883 C-17.64762146 313.05841415 -17.65187134 312.07414948 -17.65625 311.06005859 C-17.66195007 310.03684006 -17.66765015 309.01362152 -17.67352295 307.95939636 C-17.68298085 305.784709 -17.68951006 303.61000726 -17.69335938 301.43530273 C-17.7029555 298.16086344 -17.73392475 294.88708194 -17.765625 291.61279297 C-17.91746005 262.04922555 -10.45662609 237.63639987 10.54467773 216.06103516 C15.98437952 210.56644603 21.56690407 205.43079891 27.63671875 200.63037109 C31.18893397 197.7742947 34.61557722 194.78985346 38.046875 191.79052734 C42.32852384 188.05592752 46.63021818 184.3659162 51.046875 180.79052734 C69.06348232 167.79410208 69.06348232 167.79410208 79.546875 149.29052734 C79.69028113 144.84493725 78.90657137 141.91400105 76.671875 138.04052734 C71.10684385 132.31079297 63.24569045 131.10270007 55.58883667 130.86157227 C52.09853534 130.81779259 48.61177948 130.82992772 45.12158203 130.87890625 C42.42051497 130.91554579 39.72082185 130.91992358 37.01953125 130.91943359 C35.27602999 130.92926352 33.53253788 130.94091999 31.7890625 130.95458984 C30.9950705 130.95681549 30.20107849 130.95904114 29.38302612 130.96133423 C18.69104692 131.13975215 9.17571684 133.57720007 1.46484375 141.40380859 C-1.42174889 144.92241309 -3.60434099 148.2250272 -5.078125 152.54052734 C-6.84843527 157.36864625 -9.12135974 160.18619827 -13.80224609 162.40307617 C-22.45358468 165.29933845 -31.41582899 162.6456675 -39.828125 160.10302734 C-40.88128906 159.81105469 -41.93445313 159.51908203 -43.01953125 159.21826172 C-48.82723829 157.50686516 -52.6649809 156.08615657 -56.453125 151.29052734 C-56.783125 150.96052734 -57.113125 150.63052734 -57.453125 150.29052734 C-57.59427661 147.61993883 -57.49559607 144.96620497 -57.453125 142.29052734 C-58.38125 142.20802734 -59.309375 142.12552734 -60.265625 142.04052734 C-65.57846998 141.3080981 -70.48091298 139.22366583 -75.453125 137.29052734 C-75.72898438 137.90283203 -76.00484375 138.51513672 -76.2890625 139.14599609 C-78.0790503 142.44365818 -80.12281963 143.62537466 -83.453125 145.29052734 C-89.47588404 144.92218264 -94.87537744 143.44464879 -100.578125 141.54052734 C-101.35027344 141.30076172 -102.12242188 141.06099609 -102.91796875 140.81396484 C-109.22266148 138.73030149 -114.68927956 135.78682115 -117.828125 129.60302734 C-121.7060466 120.53641556 -118.80261087 110.47493086 -116.828125 101.22802734 C-116.55524658 99.94250977 -116.28236816 98.65699219 -116.0012207 97.33251953 C-111.72591955 77.82130908 -104.91228749 58.48635597 -91.453125 43.29052734 C-90.71964844 42.43845703 -89.98617187 41.58638672 -89.23046875 40.70849609 C-79.11911638 29.17919114 -79.11911638 29.17919114 -73.453125 27.29052734 C-68.57108351 27.29052734 -65.41400891 29.64993807 -61.453125 32.29052734 C-56.503125 29.65052734 -51.553125 27.01052734 -46.453125 24.29052734 C-46.948125 21.32052734 -46.948125 21.32052734 -47.453125 18.29052734 C-46.40541116 13.51760876 -43.41018577 10.90140901 -39.453125 8.29052734 C-36.44215966 6.95839906 -33.36215793 6.0195989 -30.203125 5.10302734 C-29.40777344 4.85617188 -28.61242187 4.60931641 -27.79296875 4.35498047 C-18.51616678 1.54496372 -9.7002077 -0.00961527 0 0 Z " fill="#F6B988" transform="translate(205.453125,1.70947265625)"/>
<path d="M0 0 C0.99357513 -0.00671722 1.98715027 -0.01343445 3.01083374 -0.02035522 C6.27289955 -0.03923638 9.53475803 -0.04325622 12.796875 -0.04541016 C15.09684326 -0.05185116 17.39681072 -0.05858044 19.69677734 -0.06558228 C24.51824841 -0.07753504 29.33964799 -0.08126578 34.16113281 -0.08007812 C40.26346009 -0.0798765 46.36531346 -0.10702538 52.4675293 -0.14162254 C57.22442616 -0.16415924 61.98121446 -0.16790739 66.73815918 -0.16685867 C68.98304862 -0.16918056 71.22794271 -0.17780485 73.47277832 -0.19352341 C95.67099687 -0.33424823 117.48703567 2.00144557 138.546875 9.29052734 C140.19236328 9.84160156 140.19236328 9.84160156 141.87109375 10.40380859 C156.61996805 15.68292596 169.51912555 23.3418603 181.546875 33.29052734 C182.42214844 33.97244141 183.29742187 34.65435547 184.19921875 35.35693359 C187.77124187 38.29894931 190.58475392 41.7507312 193.546875 45.29052734 C194.18882812 46.03302734 194.83078125 46.77552734 195.4921875 47.54052734 C215.91450787 71.88713673 224.45062149 103.8765779 222.2734375 135.22802734 C218.79687622 173.31728666 199.36941169 204.74579047 170.74609375 229.37646484 C168.14295618 231.64207303 165.59528776 233.96356287 163.046875 236.29052734 C157.54329893 241.30472934 151.98553333 246.23783628 146.29296875 251.03662109 C131.55973654 263.48352317 116.95958523 276.28134375 113.546875 296.29052734 C113.44831183 298.27722834 113.39282746 300.2663454 113.37109375 302.25537109 C113.34724609 303.38523437 113.32339844 304.51509766 113.29882812 305.67919922 C113.25593364 308.04099561 113.22464277 310.40303186 113.20507812 312.76513672 C112.94136031 323.52850326 112.94136031 323.52850326 108.546875 328.29052734 C104.18170535 331.58667586 100.80230467 333.40915892 95.32966614 333.43096924 C94.04083527 333.43953445 94.04083527 333.43953445 92.72596741 333.44827271 C91.31630959 333.44994949 91.31630959 333.44994949 89.87817383 333.45166016 C88.88596832 333.45662506 87.89376282 333.46158997 86.87149048 333.46670532 C83.58228872 333.48133394 80.29313523 333.48813094 77.00390625 333.49365234 C74.71807351 333.49940422 72.43224079 333.50516195 70.14640808 333.51092529 C65.3488238 333.52143796 60.55125629 333.52727856 55.75366211 333.53076172 C49.61470623 333.53624003 43.47597287 333.56025295 37.33708668 333.58873367 C32.6126593 333.60738671 27.88828517 333.61256713 23.16382408 333.6140976 C20.90127028 333.61711977 18.63871733 333.62513356 16.37619972 333.63828278 C13.20481242 333.65539492 10.03396395 333.65344995 6.86254883 333.64697266 C5.9328981 333.65618744 5.00324738 333.66540222 4.04542542 333.67489624 C-2.04499914 333.63605765 -8.27219805 333.17711306 -13.01414776 328.87395096 C-16.4029259 324.97568721 -17.57093573 321.85942188 -17.61425781 316.79760742 C-17.62386536 315.88848099 -17.6334729 314.97935455 -17.64337158 314.04267883 C-17.64762146 313.05841415 -17.65187134 312.07414948 -17.65625 311.06005859 C-17.66195007 310.03684006 -17.66765015 309.01362152 -17.67352295 307.95939636 C-17.68298085 305.784709 -17.68951006 303.61000726 -17.69335938 301.43530273 C-17.7029555 298.16086344 -17.73392475 294.88708194 -17.765625 291.61279297 C-17.91746005 262.04922555 -10.45662609 237.63639987 10.54467773 216.06103516 C15.98437952 210.56644603 21.56690407 205.43079891 27.63671875 200.63037109 C31.18893397 197.7742947 34.61557722 194.78985346 38.046875 191.79052734 C42.32852384 188.05592752 46.63021818 184.3659162 51.046875 180.79052734 C69.06348232 167.79410208 69.06348232 167.79410208 79.546875 149.29052734 C79.69028113 144.84493725 78.90657137 141.91400105 76.671875 138.04052734 C71.10684385 132.31079297 63.24569045 131.10270007 55.58883667 130.86157227 C52.09853534 130.81779259 48.61177948 130.82992772 45.12158203 130.87890625 C42.42051497 130.91554579 39.72082185 130.91992358 37.01953125 130.91943359 C35.27602999 130.92926352 33.53253788 130.94091999 31.7890625 130.95458984 C30.9950705 130.95681549 30.20107849 130.95904114 29.38302612 130.96133423 C18.69104692 131.13975215 9.17571684 133.57720007 1.46484375 141.40380859 C-1.42174889 144.92241309 -3.60434099 148.2250272 -5.078125 152.54052734 C-6.84843527 157.36864625 -9.12135974 160.18619827 -13.80224609 162.40307617 C-22.45358468 165.29933845 -31.41582899 162.6456675 -39.828125 160.10302734 C-40.88128906 159.81105469 -41.93445313 159.51908203 -43.01953125 159.21826172 C-48.82723829 157.50686516 -52.6649809 156.08615657 -56.453125 151.29052734 C-56.783125 150.96052734 -57.113125 150.63052734 -57.453125 150.29052734 C-57.52492464 148.77124697 -57.53704507 147.24885253 -57.515625 145.72802734 C-57.50660156 144.90173828 -57.49757812 144.07544922 -57.48828125 143.22412109 C-57.47667969 142.58603516 -57.46507812 141.94794922 -57.453125 141.29052734 C-56.793125 141.29052734 -56.133125 141.29052734 -55.453125 141.29052734 C-55.185 140.67177734 -54.916875 140.05302734 -54.640625 139.41552734 C-53.453125 137.29052734 -53.453125 137.29052734 -50.453125 135.29052734 C-43.95255968 134.56824231 -38.75042994 136.2409534 -32.6015625 138.31787109 C-29.55255075 139.25981145 -26.60842141 139.84044753 -23.453125 140.29052734 C-23.205625 139.58927734 -22.958125 138.88802734 -22.703125 138.16552734 C-17.62330725 126.48194652 -7.82519883 118.12236113 3.59375 112.89599609 C6.22964342 111.92391938 8.84648404 111.0637847 11.546875 110.29052734 C12.55226318 109.95118164 13.55765137 109.61183594 14.59350586 109.26220703 C19.18622249 107.95810461 23.68753036 107.98487861 28.43359375 107.98974609 C29.37185501 107.98546097 30.31011627 107.98117584 31.27680969 107.97676086 C33.25606483 107.97103908 35.23534099 107.97050137 37.21459961 107.97485352 C40.20789486 107.97799951 43.20018702 107.95457553 46.19335938 107.92919922 C63.45677196 107.87211997 79.53485904 109.84212036 92.546875 122.29052734 C100.30814749 131.69198161 102.39777963 140.21072057 101.546875 152.29052734 C99.41690581 169.41902956 85.95789919 181.41719229 73.390625 191.76123047 C70.94371677 193.79081643 68.53874225 195.86690075 66.13330078 197.9453125 C60.60507738 202.72183143 55.0059124 207.39747114 49.3359375 212.00537109 C45.03367765 215.5303319 40.78830515 219.12107146 36.5546875 222.72802734 C34.78509402 224.23562906 33.01098373 225.73800557 31.2265625 227.22802734 C16.84278248 239.41193513 7.89526956 254.50337083 5.546875 273.29052734 C5.216875 285.83052734 4.886875 298.37052734 4.546875 311.29052734 C32.926875 311.29052734 61.306875 311.29052734 90.546875 311.29052734 C90.546875 305.68052734 90.546875 300.07052734 90.546875 294.29052734 C95.67901411 271.10741619 109.04789981 252.32751981 127.6171875 237.67724609 C130.94877765 234.96311065 134.09412628 232.09642615 137.234375 229.16552734 C141.29212759 225.38017837 145.37024999 221.64089306 149.57421875 218.01708984 C152.85650004 215.14428127 156.04828391 212.17059331 159.25 209.20849609 C161.546875 207.29052734 161.546875 207.29052734 163.71875 206.27880859 C166.07712383 205.00387573 166.45180019 203.6905663 167.546875 201.29052734 C168.921875 199.86083984 168.921875 199.86083984 170.546875 198.41552734 C187.97555564 181.27611941 199.18329012 155.15704411 199.71484375 130.83740234 C199.90496438 106.66315095 196.04841663 82.13844202 179.546875 63.29052734 C178.81855469 62.43201172 178.09023438 61.57349609 177.33984375 60.68896484 C159.82103488 40.65958651 138.0874104 31.07637243 112.484375 25.54052734 C111.51540283 25.32936279 110.54643066 25.11819824 109.5480957 24.90063477 C95.06531215 21.9433536 80.36784242 22.1045355 65.65234375 22.05224609 C64.67140558 22.04817057 63.69046741 22.04409504 62.67980385 22.03989601 C57.49251148 22.01918655 52.30524442 22.00481742 47.11791992 21.99536133 C41.8129808 21.98429478 36.50846073 21.94984762 31.20366955 21.91018963 C27.07423716 21.88384413 22.94490245 21.87565399 18.81539345 21.87207985 C16.86169906 21.86726463 14.90800748 21.85579919 12.9543972 21.83704185 C-1.25868552 21.70898756 -14.02514337 23.1338519 -27.453125 28.04052734 C-31.79577742 29.55247596 -35.89922137 30.19618173 -40.453125 29.29052734 C-43.23763147 27.92454304 -44.3339288 26.72760298 -46.453125 24.29052734 C-47.5438471 21.01836105 -47.62598988 19.0780229 -46.890625 15.72802734 C-43.02462536 9.17263665 -37.14874319 7.11825043 -30.203125 5.10302734 C-29.40777344 4.85617188 -28.61242187 4.60931641 -27.79296875 4.35498047 C-18.51616678 1.54496372 -9.7002077 -0.00961527 0 0 Z " fill="#030102" transform="translate(205.453125,1.70947265625)"/>
<path d="M0 0 C1.06398514 -0.00686325 2.12797028 -0.0137265 3.22419739 -0.02079773 C6.739526 -0.0390914 10.25440941 -0.03522441 13.76977539 -0.02954102 C16.21448411 -0.03410156 18.65919153 -0.03940675 21.10389709 -0.04542542 C26.22752084 -0.05436158 31.35098875 -0.05192749 36.47460938 -0.04199219 C43.03979143 -0.03050197 49.60443568 -0.05071291 56.16954708 -0.07990932 C61.21817948 -0.09825712 66.26668267 -0.09798164 71.31534004 -0.0922718 C73.73584307 -0.09211842 76.15635476 -0.09817704 78.5768261 -0.11056328 C81.96171666 -0.12544396 85.34560936 -0.11481652 88.73046875 -0.09765625 C89.72962311 -0.10732422 90.72877747 -0.11699219 91.75820923 -0.12695312 C97.45144682 -0.06652863 101.08334968 0.35238685 105.42993164 4.40405273 C110.00188115 10.32723596 110.00338085 15.53328979 109.94750977 22.84375 C109.95451904 23.97630219 109.96152832 25.10885437 109.96875 26.27572632 C109.98630984 30.00755558 109.97471429 33.73862243 109.96118164 37.47045898 C109.96387692 40.06925095 109.96775964 42.66804193 109.97277832 45.26683044 C109.97867053 50.708105 109.97050164 56.14909448 109.95141602 61.59033203 C109.9296386 67.87132364 109.93670984 74.15179599 109.95872164 80.43277508 C109.97909289 86.48927744 109.9768965 92.54552674 109.9651947 98.60206413 C109.96252733 101.17327891 109.9657975 103.74450696 109.97511292 106.31570625 C109.98527493 109.90874443 109.9697808 113.50078602 109.94750977 117.09375 C109.95560669 118.15521744 109.96370361 119.21668488 109.9720459 120.31031799 C109.90286427 126.33702575 109.43895894 129.81127164 105.42993164 134.40405273 C101.40723188 138.03429398 98.48556218 139.52366299 93.08537292 139.54449463 C92.19801956 139.55020477 91.3106662 139.55591492 90.39642334 139.5617981 C88.93997406 139.56347488 88.93997406 139.56347488 87.45410156 139.56518555 C86.42942276 139.57015045 85.40474396 139.57511536 84.34901428 139.58023071 C80.95280286 139.5948582 77.55663816 139.60165537 74.16040039 139.60717773 C71.80251565 139.61292874 69.44463092 139.61868648 67.08674622 139.62445068 C62.13953432 139.63496237 57.19233868 139.64080393 52.24511719 139.64428711 C45.90642901 139.6497719 39.56795564 139.6737991 33.22933483 139.70225906 C28.35744092 139.72088434 23.48559876 139.72609099 18.61367226 139.72762299 C16.27689757 139.73065032 13.9401238 139.73868154 11.60338402 139.75180817 C8.33340497 139.76886581 5.06395082 139.76698885 1.79394531 139.76049805 C0.82905182 139.76971283 -0.13584167 139.77892761 -1.12997437 139.78842163 C-7.09874527 139.75131455 -11.6157652 139.09871405 -16.21459961 134.90405273 C-19.46812398 130.72561341 -20.68930982 127.93206546 -20.72396851 122.6933136 C-20.73256897 121.72470901 -20.74116943 120.75610443 -20.75003052 119.75814819 C-20.75429047 118.69681671 -20.75855042 117.63548523 -20.76293945 116.54199219 C-20.77111694 115.42299026 -20.77929443 114.30398834 -20.78771973 113.15107727 C-20.81257605 109.43983497 -20.82909092 105.72863093 -20.84350586 102.01733398 C-20.84882954 100.75029318 -20.85415321 99.48325237 -20.85963821 98.17781639 C-20.88086842 92.85141319 -20.89999764 87.52502336 -20.9112606 82.19859028 C-20.92748327 74.57791338 -20.96062305 66.95774764 -21.01766145 59.33726341 C-21.06112256 53.32460991 -21.07701491 47.31218804 -21.0833931 41.2993679 C-21.09010818 38.74651642 -21.10533674 36.19367245 -21.12928391 33.64092445 C-21.1609177 30.0645842 -21.16097389 26.4895295 -21.15356445 22.91308594 C-21.16996979 21.86187561 -21.18637512 20.81066528 -21.20327759 19.7276001 C-21.14666765 13.03998598 -20.04545279 8.49652913 -15.57006836 3.40405273 C-11.11967859 -0.68001812 -5.72047825 -0.02572126 0 0 Z " fill="#010102" transform="translate(208.570068359375,372.595947265625)"/>
<path d="M0 0 C25.39820397 -2.23226402 56.83150144 8.20666733 76.60791016 24.30126953 C79.49862726 26.77343572 82.2673561 29.35509768 85 32 C85.50257324 32.47808105 86.00514648 32.95616211 86.52294922 33.44873047 C103.56606186 49.90434436 112.67858797 72.95500393 113.16796875 96.48828125 C113.32715737 116.84020035 113.32715737 116.84020035 111 126 C110.77828125 126.94488281 110.5565625 127.88976562 110.328125 128.86328125 C104.89757241 149.02292697 94.26653665 166.82393025 79 181 C78.175 181.825 77.35 182.65 76.5 183.5 C75.675 184.325 74.85 185.15 74 186 C73.47792969 186.53367188 72.95585937 187.06734375 72.41796875 187.6171875 C67.13125433 192.98743917 61.49678131 197.87142201 55.765625 202.7578125 C49.2353164 208.33041486 42.7769574 213.94970052 36.4609375 219.765625 C34.26675164 221.75780645 32.02405908 223.66309433 29.75 225.5625 C22.86630444 231.56114898 17.86393107 239.34070624 13 247 C12.49082031 247.79277344 11.98164063 248.58554687 11.45703125 249.40234375 C9.91081561 252.15900166 8.91026221 254.80757058 7.9375 257.8125 C7.45603516 259.27623047 7.45603516 259.27623047 6.96484375 260.76953125 C3.96065155 270.82810191 3.65325964 277.89458605 3 289 C-9.54 289 -22.08 289 -35 289 C-39.89999971 274.30000086 -33.42513402 255.72365919 -28 242 C-27.34 242 -26.68 242 -26 242 C-25.67 240.02 -25.34 238.04 -25 236 C-24.34 236 -23.68 236 -23 236 C-22.814375 235.175 -22.62875 234.35 -22.4375 233.5 C-20.76722954 229.43325454 -18.52810857 226.91996678 -15.55859375 223.734375 C-13.92470038 222.07040802 -13.92470038 222.07040802 -13 220 C-12.13375 219.5978125 -12.13375 219.5978125 -11.25 219.1875 C-8.25160618 217.60501437 -6.33489763 215.44879507 -4 213 C-2.37163262 211.2958946 -0.71230248 209.61974559 1 208 C1.66 208 2.32 208 3 208 C3 207.34 3 206.68 3 206 C7.07433145 201.39994837 11.92785424 197.45782825 17 194 C17.66 194 18.32 194 19 194 C19.2475 193.4225 19.495 192.845 19.75 192.25 C21.18299988 189.67060021 22.78424676 187.93878408 25 186 C25.66 186 26.32 186 27 186 C27 185.34 27 184.68 27 184 C27.66 184 28.32 184 29 184 C29.2475 183.38125 29.495 182.7625 29.75 182.125 C31.20628639 179.64931313 32.37812506 179.04874998 35 178 C35 177.34 35 176.68 35 176 C35.66 176 36.32 176 37 176 C37 175.34 37 174.68 37 174 C37.66 174 38.32 174 39 174 C39 173.01 39 172.02 39 171 C39.99 170.67 40.98 170.34 42 170 C42.33 169.34 42.66 168.68 43 168 C43.66 168 44.32 168 45 168 C45.268125 167.29875 45.53625 166.5975 45.8125 165.875 C48.10231989 160.33122553 50.99632604 155.17874822 54 150 C54.66 150 55.32 150 56 150 C56.4803318 148.41701974 56.95921612 146.83360022 57.4375 145.25 C57.70433594 144.36828125 57.97117187 143.4865625 58.24609375 142.578125 C58.88468494 140.39434165 59.46775833 138.21164502 60 136 C60.66 136 61.32 136 62 136 C62.33647383 134.33396451 62.6687487 132.66708172 63 131 C63.24878906 129.78054687 63.49757813 128.56109375 63.75390625 127.3046875 C65.59242495 117.5610972 66.2953427 108.04191786 66.3125 98.125 C66.32035522 96.46960205 66.32035522 96.46960205 66.32836914 94.78076172 C66.2631255 87.04044142 65.36336889 79.61519958 64 72 C63.34 72 62.68 72 62 72 C61.75765625 71.07058594 61.5153125 70.14117187 61.265625 69.18359375 C59.47738929 62.58775509 57.63017453 56.83420906 54 51 C54 50.01 54 49.02 54 48 C53.34 48 52.68 48 52 48 C49 42.25 49 42.25 49 40 C48.34 40 47.68 40 47 40 C45 37 45 37 45 34 C44.34 34 43.68 34 43 34 C43 33.34 43 32.68 43 32 C42.38125 31.71125 41.7625 31.4225 41.125 31.125 C39 30 39 30 37 28 C37 27.01 37 26.02 37 25 C36.236875 24.7525 35.47375 24.505 34.6875 24.25 C31.73919055 22.87869328 30.64165468 21.7648921 29 19 C29 18.34 29 17.68 29 17 C28.21625 16.896875 27.4325 16.79375 26.625 16.6875 C24 16 24 16 22 13 C20.03875312 11.92598385 18.02915769 10.93942486 16 10 C14.53957139 9.27503903 13.08126186 8.54579498 11.625 7.8125 C10.93664062 7.46832031 10.24828125 7.12414062 9.5390625 6.76953125 C9.03117187 6.51558594 8.52328125 6.26164062 8 6 C8 5.34 8 4.68 8 4 C7.236875 3.855625 6.47375 3.71125 5.6875 3.5625 C3 3 3 3 0 2 C0 1.34 0 0.68 0 0 Z " fill="#F19A67" transform="translate(293,24)"/>
<path d="M0 0 C28.38 0 56.76 0 86 0 C86 31.35 86 62.7 86 95 C57.62 95 29.24 95 0 95 C0 63.65 0 32.3 0 0 Z " fill="#B6D7FA" transform="translate(210,395)"/>
<path d="M0 0 C12.54 0 25.08 0 38 0 C38 31.35 38 62.7 38 95 C25.46 95 12.92 95 0 95 C0 63.65 0 32.3 0 0 Z " fill="#88BCF3" transform="translate(258,395)"/>
<path d="M0 0 C3.30055507 2.20037005 4.73542724 3.20628173 6 7 C6.6848249 13.96238651 6.6848249 13.96238651 3.9375 18.125 C2.52192248 19.62361419 1.09895295 20.92440396 -0.5390625 22.17578125 C-18.62539093 36.01910846 -25.51404914 62.10637707 -28.640625 83.5546875 C-29.00852389 86.05799953 -29.48510111 88.52315876 -30 91 C-29.38253906 91.09796875 -28.76507813 91.1959375 -28.12890625 91.296875 C-20.86279531 92.57978043 -14.02983367 94.19740386 -8.5 99.3125 C-6.68984967 102.555686 -6.28856765 105.32076241 -6 109 C-6.66 109 -7.32 109 -8 109 C-8.20625 109.5775 -8.4125 110.155 -8.625 110.75 C-10.61502166 114.00639908 -12.59233999 115.29617 -16 117 C-22.02275904 116.63165529 -27.42225244 115.15412145 -33.125 113.25 C-33.89714844 113.01023437 -34.66929688 112.77046875 -35.46484375 112.5234375 C-41.76953648 110.43977415 -47.23615456 107.4962938 -50.375 101.3125 C-54.2529216 92.24588822 -51.34948587 82.18440351 -49.375 72.9375 C-49.10212158 71.65198242 -48.82924316 70.36646484 -48.5480957 69.04199219 C-44.27279455 49.53078174 -37.45916249 30.19582862 -24 15 C-23.26652344 14.14792969 -22.53304687 13.29585937 -21.77734375 12.41796875 C-8.86515786 -2.30494104 -8.86515786 -2.30494104 0 0 Z " fill="#030202" transform="translate(138,30)"/>
<path d="M0 0 C12.54 0 25.08 0 38 0 C38 31.35 38 62.7 38 95 C25.46 95 12.92 95 0 95 C0 63.65 0 32.3 0 0 Z M2 5 C1.85492305 7.74485593 1.81347577 10.38480543 1.875 13.125 C1.88402344 13.87910156 1.89304687 14.63320313 1.90234375 15.41015625 C1.9259313 17.27357254 1.96180281 19.13682593 2 21 C2.66 21 3.32 21 4 21 C4 44.76 4 68.52 4 93 C14.56 93 25.12 93 36 93 C36 63.63 36 34.26 36 4 C31.69327058 1.84663529 25.92674995 2.81414522 21.14160156 2.81469727 C19.00826135 2.81250848 16.87543634 2.79434081 14.7421875 2.77539062 C13.39062677 2.77245706 12.03906358 2.77047202 10.6875 2.76953125 C9.45386719 2.76542236 8.22023438 2.76131348 6.94921875 2.75708008 C3.87893228 2.68995159 3.87893228 2.68995159 2 5 Z " fill="#8DBCEC" transform="translate(258,395)"/>
<path d="M0 0 C28.71 0 57.42 0 87 0 C88.68967804 3.37935608 88.13794849 7.21506146 88.12939453 10.93188477 C88.13202301 12.31979721 88.13202301 12.31979721 88.13470459 13.73574829 C88.13911786 16.80431984 88.13618718 19.87283409 88.1328125 22.94140625 C88.13348563 25.06607576 88.13445573 27.19074519 88.13571167 29.31541443 C88.13718788 33.77172579 88.13503631 38.22801713 88.13037109 42.68432617 C88.1246704 48.41026939 88.12795546 54.13616577 88.13394356 59.86210728 C88.13754827 64.24997819 88.13641106 68.63783791 88.13381577 73.02570915 C88.13314643 75.13773542 88.13397516 77.24976269 88.13629532 79.3617878 C88.13882075 82.30705606 88.13498296 85.25224727 88.12939453 88.19750977 C88.13141876 89.07909256 88.13344299 89.96067535 88.13552856 90.86897278 C88.11426308 96.88573692 88.11426308 96.88573692 87 98 C85.08401905 98.1463099 83.16299311 98.22744111 81.2421875 98.28125 C80.05882812 98.31863281 78.87546875 98.35601562 77.65625 98.39453125 C75.78453125 98.44673828 75.78453125 98.44673828 73.875 98.5 C64.84545047 98.6375122 64.84545047 98.6375122 55.8828125 99.59375 C52.99550834 100.00063297 51.74591138 99.69594841 49 99 C47.38225016 98.88887267 45.76093554 98.82454355 44.13964844 98.79467773 C43.17895447 98.77473251 42.2182605 98.75478729 41.22845459 98.73423767 C40.19915833 98.71752518 39.16986206 98.70081268 38.109375 98.68359375 C36.51974945 98.6524221 36.51974945 98.6524221 34.89801025 98.62062073 C31.51540562 98.55527814 28.13272388 98.49631119 24.75 98.4375 C22.45572122 98.39430025 20.16145021 98.35068549 17.8671875 98.30664062 C12.24487298 98.1996124 6.6224819 98.09781761 1 98 C0.67 97.34 0.34 96.68 0 96 C28.38 96 56.76 96 86 96 C86 64.65 86 33.3 86 1 C57.62 1 29.24 1 0 1 C0 0.67 0 0.34 0 0 Z " fill="#1C2639" transform="translate(210,394)"/>
<path d="M0 0 C12.54 0 25.08 0 38 0 C38 31.35 38 62.7 38 95 C25.46 95 12.92 95 0 95 C0 94.34 0 93.68 0 93 C11.88 93 23.76 93 36 93 C36 62.64 36 32.28 36 1 C24.12 1 12.24 1 0 1 C0 0.67 0 0.34 0 0 Z " fill="#97B7DC" transform="translate(258,395)"/>
<path d="M0 0 C1.34730698 -0.00021904 1.34730698 -0.00021904 2.72183228 -0.0004425 C5.67607072 0.00025141 8.63024529 0.00801934 11.58447266 0.01586914 C13.63855963 0.01773517 15.69264704 0.0191582 17.74673462 0.02015686 C23.14224485 0.02396745 28.53772798 0.03378527 33.93322754 0.04486084 C39.44327427 0.05510633 44.95332539 0.0596612 50.46337891 0.06469727 C61.2667762 0.07540886 72.07015342 0.09246775 82.87353516 0.11352539 C83.36853516 1.59852539 83.36853516 1.59852539 83.87353516 3.11352539 C71.85146938 3.13670357 59.82940894 3.15446844 47.80732536 3.16533756 C42.22489507 3.17055439 36.64248008 3.17763029 31.06005859 3.18896484 C25.67194595 3.19983631 20.28384802 3.20581128 14.89572525 3.20840263 C12.84085992 3.21024919 10.78599539 3.21385503 8.73113632 3.21925545 C5.85133886 3.22652236 2.97160204 3.22751394 0.09179688 3.22705078 C-0.75625015 3.23064606 -1.60429718 3.23424133 -2.4780426 3.23794556 C-6.8093657 3.23041599 -10.86077939 2.98097542 -15.12646484 2.11352539 C-15.12646484 1.78352539 -15.12646484 1.45352539 -15.12646484 1.11352539 C-10.03229431 0.08004474 -5.17020229 -0.02216333 0 0 Z " fill="#D6AE91" transform="translate(209.12646484375,22.886474609375)"/>
<path d="M0 0 C2 2 2 2 2.22705078 5.25634766 C2.22655062 6.64229289 2.21550252 8.02826424 2.1953125 9.4140625 C2.19329834 10.06076904 2.19128418 10.70747559 2.18920898 11.3737793 C2.17874025 13.79092495 2.1508176 16.20796956 2.125 18.625 C2.08375 24.02875 2.0425 29.4325 2 35 C16.52 35 31.04 35 46 35 C46 35.66 46 36.32 46 37 C46.99 37.495 46.99 37.495 48 38 C32.16 38 16.32 38 0 38 C0 25.46 0 12.92 0 0 Z " fill="#DEB79A" transform="translate(210,275)"/>
<path d="M0 0 C15.51 0 31.02 0 47 0 C46.67 0.66 46.34 1.32 46 2 C32.28806393 4.1156699 17.82207133 3.10284279 4 3 C3.67 3.66 3.34 4.32 3 5 C2.67 5 2.34 5 2 5 C1.67 34.04 1.34 63.08 1 93 C1.99 93.33 2.98 93.66 4 94 C2.02 94.495 2.02 94.495 0 95 C0 63.65 0 32.3 0 0 Z " fill="#BACEE6" transform="translate(210,395)"/>
<path d="M0 0 C12.67333698 -1.11386751 24.73510862 2.18082947 37 5 C37 5.33 37 5.66 37 6 C35.30230469 6.16435547 35.30230469 6.16435547 33.5703125 6.33203125 C32.08846436 6.49147061 30.60669744 6.65166618 29.125 6.8125 C28.00544922 6.91788086 28.00544922 6.91788086 26.86328125 7.02539062 C24.89448223 7.24710223 22.94363342 7.61579339 21 8 C20.01 9.485 20.01 9.485 19 11 C18.484375 10.731875 17.96875 10.46375 17.4375 10.1875 C14.33598585 8.67650593 11.17737194 7.34427274 8 6 C8 5.34 8 4.68 8 4 C7.236875 3.855625 6.47375 3.71125 5.6875 3.5625 C3 3 3 3 0 2 C0 1.34 0 0.68 0 0 Z " fill="#ED9B6B" transform="translate(293,24)"/>
<path d="M0 0 C1.32 0.33 2.64 0.66 4 1 C-1.3429057 5.95019696 -6.69297618 10.81431814 -12.375 15.375 C-17.3022861 19.33948307 -21.93036205 23.55796598 -26.49755859 27.92724609 C-29.4783744 30.74355152 -32.39225102 33.04302915 -36 35 C-36 34.01 -36 33.02 -36 32 C-35.34 32 -34.68 32 -34 32 C-34 31.01 -34 30.02 -34 29 C-33.01 29 -32.02 29 -31 29 C-30.67 28.01 -30.34 27.02 -30 26 C-29.34 26 -28.68 26 -28 26 C-28 24.68 -28 23.36 -28 22 C-26.02 22 -24.04 22 -22 22 C-22 20.68 -22 19.36 -22 18 C-21.34 18 -20.68 18 -20 18 C-19.855625 17.195625 -19.71125 16.39125 -19.5625 15.5625 C-19 13 -19 13 -18 12 C-16.00041636 11.95919217 -13.99954746 11.95745644 -12 12 C-12 11.34 -12 10.68 -12 10 C-6.58823529 6 -6.58823529 6 -4 6 C-4 5.34 -4 4.68 -4 4 C-3.34 4 -2.68 4 -2 4 C-2 3.34 -2 2.68 -2 2 C-1.34 2 -0.68 2 0 2 C0 1.34 0 0.68 0 0 Z " fill="#D19370" transform="translate(358,214)"/>
<path d="M0 0 C8.26660437 12.39990655 9.19947456 27.84124047 9.1875 42.3125 C9.18669434 43.32417236 9.18588867 44.33584473 9.18505859 45.37817383 C9.0437187 62.6091696 9.0437187 62.6091696 5 70 C4.34 70 3.68 70 3 70 C3.144375 69.319375 3.28875 68.63875 3.4375 67.9375 C4.06945909 64.63726918 4.54313941 61.32855574 5 58 C5.33 58 5.66 58 6 58 C6.33 48.1 6.66 38.2 7 28 C6.34 28 5.68 28 5 28 C5 24.7 5 21.4 5 18 C4.34 18 3.68 18 3 18 C3 14.7 3 11.4 3 8 C2.34 8 1.68 8 1 8 C0.67 5.36 0.34 2.72 0 0 Z " fill="#D09177" transform="translate(397,84)"/>
<path d="M0 0 C1.52330933 0.01441132 1.52330933 0.01441132 3.07739258 0.02911377 C6.41039395 0.06190787 9.74325609 0.10231398 13.07617188 0.14282227 C15.3964388 0.16714255 17.71671077 0.19098514 20.0369873 0.21437073 C26.12627951 0.27702173 32.2154816 0.34614166 38.3046875 0.41662598 C44.52534909 0.48748142 50.74607427 0.5521952 56.96679688 0.61743164 C69.15957511 0.74619911 81.35226694 0.88180325 93.54492188 1.02172852 C93.54492188 1.68172852 93.54492188 2.34172852 93.54492188 3.02172852 C91.62385117 3.0183976 91.62385117 3.0183976 89.66397095 3.01499939 C77.57041556 2.99469181 65.47686365 2.97971972 53.38329506 2.96991634 C47.16649284 2.96470685 40.94970443 2.95764441 34.73291016 2.94628906 C28.72881307 2.93539136 22.72472923 2.92943712 16.72062302 2.92685127 C14.4346127 2.92500941 12.14860307 2.92141277 9.86259842 2.91599846 C6.65073349 2.90869663 3.43892272 2.90774142 0.22705078 2.90820312 C-0.70947327 2.90460785 -1.64599731 2.90101257 -2.61090088 2.89730835 C-8.6147065 2.90659395 -14.49328327 3.31511751 -20.45507812 4.02172852 C-19.79507813 3.69172852 -19.13507813 3.36172852 -18.45507812 3.02172852 C-18.45507812 2.36172852 -18.45507812 1.70172852 -18.45507812 1.02172852 C-12.2489738 0.09700992 -6.26787678 -0.08598365 0 0 Z " fill="#1E0603" transform="translate(210.455078125,20.978271484375)"/>
<path d="M0 0 C0.66 1.32 1.32 2.64 2 4 C1.34 4 0.68 4 0 4 C-0.144375 4.61875 -0.28875 5.2375 -0.4375 5.875 C-1 8 -1 8 -2 10 C-2.66 10 -3.32 10 -4 10 C-4 11.32 -4 12.64 -4 14 C-4.66 14 -5.32 14 -6 14 C-6.309375 14.61875 -6.61875 15.2375 -6.9375 15.875 C-7.625 17.25 -8.3125 18.625 -9 20 C-11.5625 20.625 -11.5625 20.625 -14 21 C-14 21.99 -14 22.98 -14 24 C-15.32 24 -16.64 24 -18 24 C-18.33 24.66 -18.66 25.32 -19 26 C-19.66 26.33 -20.32 26.66 -21 27 C-21.65555119 29.52733235 -21.65555119 29.52733235 -22 32 C-22.99 32 -23.98 32 -25 32 C-25 32.66 -25 33.32 -25 34 C-25.804375 34.28875 -26.60875 34.5775 -27.4375 34.875 C-30.1326468 35.73262568 -30.1326468 35.73262568 -31 38 C-32.65 38 -34.3 38 -36 38 C-29.59476478 31.38125694 -22.72262278 25.31737749 -15.4375 19.6875 C-9.14921428 14.61572475 -2.59685108 7.79055324 0 0 Z " fill="#E4BB95" transform="translate(302,166)"/>
<path d="M0 0 C0.495 1.98 0.495 1.98 1 4 C-2.03854853 4.65111754 -4.49222477 5.08938347 -7.57275391 4.54711914 C-12.12419604 3.82053545 -16.60847263 3.76617071 -21.2109375 3.68359375 C-22.17907379 3.66281265 -23.14721008 3.64203156 -24.14468384 3.62062073 C-27.22138732 3.55551016 -30.29817236 3.49642002 -33.375 3.4375 C-35.46745617 3.39427814 -37.55990426 3.3506627 -39.65234375 3.30664062 C-44.76814669 3.19986844 -49.88403125 3.09849364 -55 3 C-55 2.34 -55 1.68 -55 1 C-27.775 0.505 -27.775 0.505 0 0 Z " fill="#E2BD9F" transform="translate(279,107)"/>
<path d="M0 0 C2 2 2 2 2.25 4.4375 C2 7 2 7 0 10 C-0.33 15.28 -0.66 20.56 -1 26 C-29.71 26 -58.42 26 -88 26 C-88 25.67 -88 25.34 -88 25 C-59.62 25 -31.24 25 -2 25 C-2 19.39 -2 13.78 -2 8 C-1.34 5.36 -0.68 2.72 0 0 Z " fill="#381809" transform="translate(298,288)"/>
<path d="M0 0 C0.99 0.33 1.98 0.66 3 1 C2.76228882 1.93138794 2.76228882 1.93138794 2.51977539 2.8815918 C1.79698625 7.21798716 1.76379232 11.50482543 1.68359375 15.89453125 C1.66281265 16.84188644 1.64203156 17.78924164 1.62062073 18.76530457 C1.55542222 21.7809651 1.49637868 24.7967101 1.4375 27.8125 C1.39428652 29.86133674 1.35067134 31.91016504 1.30664062 33.95898438 C1.19977134 38.97257047 1.09842069 43.98624123 1 49 C0.34 49 -0.32 49 -1 49 C-1.19285797 42.98633791 -1.37148505 36.97248169 -1.53710938 30.95800781 C-1.59540015 28.91329705 -1.65753429 26.86869201 -1.72363281 24.82421875 C-1.8181327 21.8804042 -1.89866778 18.93648256 -1.9765625 15.9921875 C-2.00875885 15.0825827 -2.0409552 14.17297791 -2.0741272 13.23580933 C-2.18798547 8.37912608 -1.92371828 4.56308602 0 0 Z " fill="#EFBA8F" transform="translate(213,261)"/>
<path d="M0 0 C0.66 0 1.32 0 2 0 C1.79141357 0.92296875 1.58282715 1.8459375 1.36791992 2.796875 C-0.99958793 13.88973149 -1.53736153 24.68452771 -1.6875 36 C-1.72078005 37.75783612 -1.75527894 39.5156496 -1.79101562 41.2734375 C-1.87466927 45.5154966 -1.94203731 49.75751532 -2 54 C-2.66 53.67 -3.32 53.34 -4 53 C-4 39.8 -4 26.6 -4 13 C-3.34 13 -2.68 13 -2 13 C-2.04125 11.783125 -2.0825 10.56625 -2.125 9.3125 C-2.13754508 5.78105873 -1.59998217 3.19996434 0 0 Z " fill="#210F0A" transform="translate(212,259)"/>
<path d="M0 0 C1.485 0.99 1.485 0.99 3 2 C4.65549531 2.38499891 6.3222433 2.72793135 8 3 C8 4.98 8 6.96 8 9 C8.66 9 9.32 9 10 9 C11.25664978 11.90600261 12 13.79604584 12 17 C12.66 17 13.32 17 14 17 C14.05805933 21.24994263 14.09361654 25.49978324 14.125 29.75 C14.15013672 31.55984375 14.15013672 31.55984375 14.17578125 33.40625 C14.18222656 34.56640625 14.18867188 35.7265625 14.1953125 36.921875 C14.20578613 37.99018555 14.21625977 39.05849609 14.22705078 40.15917969 C14.00161519 42.97979105 13.45848994 44.60787463 12 47 C11.01 47 10.02 47 9 47 C9.32484375 45.92685547 9.32484375 45.92685547 9.65625 44.83203125 C12.83579918 33.45336681 13.61449212 23.66488233 8.578125 12.73828125 C6.56089591 9.23808919 4.19044011 6.38863243 1.35546875 3.5234375 C0 2 0 2 0 0 Z " fill="#DAB89C" transform="translate(294,119)"/>
<path d="M0 0 C0 2.64779693 -0.17195931 4.51587793 -1 7 C-1.99 7.495 -1.99 7.495 -3 8 C-2.67 8.66 -2.34 9.32 -2 10 C-4.64 10 -7.28 10 -10 10 C-9.67 11.32 -9.34 12.64 -9 14 C-10.32 14 -11.64 14 -13 14 C-13 15.32 -13 16.64 -13 18 C-13.94875 18.28875 -14.8975 18.5775 -15.875 18.875 C-19.05211578 19.76825109 -19.05211578 19.76825109 -21 22 C-23.125 21.625 -23.125 21.625 -25 21 C-16.79835109 13.82629109 -8.59918945 6.69725108 0 0 Z " fill="#E2B693" transform="translate(265,204)"/>
<path d="M0 0 C0.66 0 1.32 0 2 0 C2.79953138 3.28696233 3.09658936 4.71023192 2 8 C1.67 13.61 1.34 19.22 1 25 C-11.54 25 -24.08 25 -37 25 C-37 24.67 -37 24.34 -37 24 C-25.12 24 -13.24 24 -1 24 C-1.03958834 16.47567226 -1.03958834 16.47567226 -1.09008789 8.95141602 C-1.09258545 8.01998779 -1.09508301 7.08855957 -1.09765625 6.12890625 C-1.10289307 5.17056885 -1.10812988 4.21223145 -1.11352539 3.22485352 C-1 1 -1 1 0 0 Z " fill="#CE9879" transform="translate(295,288)"/>
<path d="M0 0 C1.485 0.99 1.485 0.99 3 2 C3.1875 5.125 3.1875 5.125 3 8 C5.64 8 8.28 8 11 8 C11 8.66 11 9.32 11 10 C13.97 10 16.94 10 20 10 C19.67 10.99 19.34 11.98 19 13 C13.23720713 14.53674476 8.88558479 13.67240466 3.33984375 11.51953125 C0.50054398 9.67564542 0.00327388 8.56976018 -0.75 5.3125 C-1.046875 2.92578125 -1.046875 2.92578125 -1 1 C-0.67 0.67 -0.34 0.34 0 0 Z " fill="#E4B991" transform="translate(131,130)"/>
<path d="M0 0 C7.0513335 1.25561975 12.60996953 3.5134731 18.875 6.9375 C19.71546875 7.38029297 20.5559375 7.82308594 21.421875 8.27929688 C25.07203149 10.23557084 28.17317536 11.92806532 31 15 C29.35 15.33 27.7 15.66 26 16 C26 15.34 26 14.68 26 14 C25.34 14 24.68 14 24 14 C24 13.34 24 12.68 24 12 C23.34 12 22.68 12 22 12 C22 11.34 22 10.68 22 10 C20.68 10 19.36 10 18 10 C18 9.34 18 8.68 18 8 C15.36 8 12.72 8 10 8 C10 7.34 10 6.68 10 6 C7.36 5.34 4.72 4.68 2 4 C2 3.34 2 2.68 2 2 C1.34 2 0.68 2 0 2 C0 1.34 0 0.68 0 0 Z " fill="#D79877" transform="translate(336,32)"/>
<path d="M0 0 C0.33 0 0.66 0 1 0 C1 5.94 1 11.88 1 18 C2.32 18.33 3.64 18.66 5 19 C5 19.66 5 20.32 5 21 C7.64 21 10.28 21 13 21 C13 21.66 13 22.32 13 23 C14.32 23 15.64 23 17 23 C16.67 23.99 16.34 24.98 16 26 C9.73 24.02 3.46 22.04 -3 20 C-2.39028162 15.12225296 -1.76145468 10.33386743 -0.9375 5.5 C-0.67259766 3.93765625 -0.67259766 3.93765625 -0.40234375 2.34375 C-0.26957031 1.5703125 -0.13679688 0.796875 0 0 Z " fill="#D7B195" transform="translate(111,101)"/>
<path d="M0 0 C1.65 0 3.3 0 5 0 C3.35 3.3 1.7 6.6 0 10 C-6.55361587 9.47148259 -12.88352268 8.53639635 -19 6 C-19.33 5.34 -19.66 4.68 -20 4 C-17.36 4 -14.72 4 -12 4 C-12 4.66 -12 5.32 -12 6 C-10.7625 5.979375 -9.525 5.95875 -8.25 5.9375 C-5.3359175 5.93233319 -2.79046673 6.06984442 0 7 C0 4.69 0 2.38 0 0 Z " fill="#DCB393" transform="translate(182,132)"/>
<path d="M0 0 C0.99245476 0.00212242 0.99245476 0.00212242 2.00495911 0.00428772 C4.11402953 0.00987629 6.22299302 0.0224266 8.33203125 0.03515625 C9.76367034 0.04017273 11.1953111 0.04473538 12.62695312 0.04882812 C16.13284713 0.05984195 19.63867875 0.0770987 23.14453125 0.09765625 C23.14453125 0.42765625 23.14453125 0.75765625 23.14453125 1.09765625 C10.76953125 1.59265625 10.76953125 1.59265625 -1.85546875 2.09765625 C-1.85546875 3.08765625 -1.85546875 4.07765625 -1.85546875 5.09765625 C-4.82546875 5.75765625 -7.79546875 6.41765625 -10.85546875 7.09765625 C-10.52546875 5.11765625 -10.19546875 3.13765625 -9.85546875 1.09765625 C-6.37764292 -0.06161903 -3.66743618 -0.01547441 0 0 Z " fill="#F2B98C" transform="translate(225.85546875,105.90234375)"/>
<path d="M0 0 C-2.67034544 3.45574116 -5.92952713 3.86931309 -10 5 C-10.33 5.66 -10.66 6.32 -11 7 C-11.99 7 -12.98 7 -14 7 C-14 7.99 -14 8.98 -14 10 C-14.66 10 -15.32 10 -16 10 C-16.33 11.98 -16.66 13.96 -17 16 C-17.33 16 -17.66 16 -18 16 C-18.33 13.03 -18.66 10.06 -19 7 C-5.32594937 -1.72310127 -5.32594937 -1.72310127 0 0 Z " fill="#E1B590" transform="translate(162,28)"/>
<path d="M0 0 C0.33 0 0.66 0 1 0 C1.04254356 1.99954746 1.04080783 4.00041636 1 6 C0.67 6.33 0.34 6.66 0 7 C-0.15655027 8.48638992 -0.25066943 9.97949127 -0.31640625 11.47265625 C-0.35830078 12.37177734 -0.40019531 13.27089844 -0.44335938 14.19726562 C-0.48267578 15.14279297 -0.52199219 16.08832031 -0.5625 17.0625 C-0.60568359 18.01189453 -0.64886719 18.96128906 -0.69335938 19.93945312 C-0.79979276 22.29281353 -0.90181008 24.64628354 -1 27 C-0.34 27 0.32 27 1 27 C1 27.66 1 28.32 1 29 C0.34 29 -0.32 29 -1 29 C-1 29.66 -1 30.32 -1 31 C-1.66 31 -2.32 31 -3 31 C-3.33 31.66 -3.66 32.32 -4 33 C-4.47469129 21.74805836 -3.58181609 10.74544827 0 0 Z " fill="#EEA26F" transform="translate(261,277)"/>
<path d="M0 0 C0.33 0 0.66 0 1 0 C1.0744389 4.0384057 1.12873729 8.07654293 1.16479492 12.11547852 C1.17983432 13.48794517 1.20027133 14.86036414 1.22631836 16.23266602 C1.26291221 18.21088656 1.27816698 20.18946514 1.29296875 22.16796875 C1.3086792 23.35672607 1.32438965 24.5454834 1.34057617 25.77026367 C0.97040559 29.28064831 0.03323257 31.15535052 -2 34 C-3.39321987 31.21356025 -2.93076935 29.17577761 -2.6953125 26.07421875 C-2.60636719 24.88505859 -2.51742188 23.69589844 -2.42578125 22.47070312 C-2.32652344 21.22224609 -2.22726562 19.97378906 -2.125 18.6875 C-2.03347656 17.45064453 -1.94195312 16.21378906 -1.84765625 14.93945312 C-1.07556764 4.87511493 -1.07556764 4.87511493 0 0 Z " fill="#23130E" transform="translate(407,115)"/>
<path d="M0 0 C-4.05344028 3.3778669 -8.34136276 6.34539799 -12.6953125 9.31640625 C-14.67465626 10.76233364 -16.33558493 12.21048183 -18 14 C-18.33 13.01 -18.66 12.02 -19 11 C-18.360625 10.38125 -17.72125 9.7625 -17.0625 9.125 C-14.96116416 7.17402388 -14.96116416 7.17402388 -14 5 C-13.34 5 -12.68 5 -12 5 C-12 4.34 -12 3.68 -12 3 C-10.68 3 -9.36 3 -8 3 C-8 2.34 -8 1.68 -8 1 C-4.93251126 -0.86240388 -3.40254489 -1.2151946 0 0 Z " fill="#DDB18F" transform="translate(208,115)"/>
<path d="M0 0 C0.33 0.99 0.66 1.98 1 3 C0.01 3.66 -0.98 4.32 -2 5 C-2.33 5.99 -2.66 6.98 -3 8 C-3.66 8 -4.32 8 -5 8 C-5 8.66 -5 9.32 -5 10 C-6.98 10.66 -8.96 11.32 -11 12 C-11 12.66 -11 13.32 -11 14 C-11.66 14 -12.32 14 -13 14 C-13 14.66 -13 15.32 -13 16 C-14.32 15.67 -15.64 15.34 -17 15 C-14.91880554 13.06015834 -12.83515453 11.12307706 -10.75 9.1875 C-9.87021484 8.36668945 -9.87021484 8.36668945 -8.97265625 7.52929688 C-6.08463321 4.85219687 -3.22478709 2.27491168 0 0 Z " fill="#1F0905" transform="translate(337,236)"/>
<path d="M0 0 C1.32 0 2.64 0 4 0 C0.40344063 7.7986619 -5.04692433 14.95902014 -12 20 C-12 18.68 -12 17.36 -12 16 C-11.34 16 -10.68 16 -10 16 C-10 15.34 -10 14.68 -10 14 C-9.34 14 -8.68 14 -8 14 C-7.34 12.68 -6.68 11.36 -6 10 C-5.34 10 -4.68 10 -4 10 C-4 9.34 -4 8.68 -4 8 C-3.34 8 -2.68 8 -2 8 C-2 6.68 -2 5.36 -2 4 C-1.34 4 -0.68 4 0 4 C0 2.68 0 1.36 0 0 Z " fill="#CF9576" transform="translate(386,182)"/>
<path d="M0 0 C3.60686535 1.56017897 6.21200604 3.75765318 9.125 6.375 C9.99382812 7.14585938 10.86265625 7.91671875 11.7578125 8.7109375 C13.78336688 10.77883797 14.92192633 12.34721199 16 15 C13.6875 14.8125 13.6875 14.8125 11 14 C8 9.96551724 8 9.96551724 8 7 C6.68 7 5.36 7 4 7 C1.75 5.1875 1.75 5.1875 0 3 C0 2.01 0 1.02 0 0 Z " fill="#D59979" transform="translate(368,49)"/>
<path d="M0 0 C0.66 0 1.32 0 2 0 C0.54436798 4.12429072 -1.52807933 7.40447903 -4 11 C-6.05940535 14.24752382 -7.66046765 17.39356676 -9 21 C-9.33 21 -9.66 21 -10 21 C-10 18.03 -10 15.06 -10 12 C-8.68 12 -7.36 12 -6 12 C-6 10.68 -6 9.36 -6 8 C-5.34 8 -4.68 8 -4 8 C-4 6.68 -4 5.36 -4 4 C-3.34 4 -2.68 4 -2 4 C-1.34 2.68 -0.68 1.36 0 0 Z " fill="#C99172" transform="translate(310,260)"/>
<path d="M0 0 C9.56700056 0.61722584 18.69247957 2.8201341 28 5 C28 5.33 28 5.66 28 6 C25.03 6 22.06 6 19 6 C19 5.34 19 4.68 19 4 C13.39 4 7.78 4 2 4 C2 3.34 2 2.68 2 2 C1.34 1.34 0.68 0.68 0 0 Z " fill="#C68D71" transform="translate(302,24)"/>
<path d="M0 0 C4.43865146 3.11484313 6.78721754 6.36719096 9.375 11 C9.74238281 11.61617187 10.10976563 12.23234375 10.48828125 12.8671875 C13.06708459 17.40198884 13.06708459 17.40198884 12.7265625 20.4375 C12.36691406 21.2109375 12.36691406 21.2109375 12 22 C11.34 22 10.68 22 10 22 C10 20.02 10 18.04 10 16 C9.34 16 8.68 16 8 16 C8 14.68 8 13.36 8 12 C7.34 12 6.68 12 6 12 C6 10.68 6 9.36 6 8 C5.34 8 4.68 8 4 8 C4 7.34 4 6.68 4 6 C3.34 6 2.68 6 2 6 C2 5.34 2 4.68 2 4 C1.34 4 0.68 4 0 4 C0 2.68 0 1.36 0 0 Z " fill="#C59073" transform="translate(384,64)"/>
<path d="M0 0 C0.66 0.99 1.32 1.98 2 3 C2.66 2.01 3.32 1.02 4 0 C4.38063221 2.3260857 4.71269945 4.66055264 5 7 C4 8 4 8 0.9375 8.0625 C-0.031875 8.041875 -1.00125 8.02125 -2 8 C-1.67 9.65 -1.34 11.3 -1 13 C-1.99 13.33 -2.98 13.66 -4 14 C-4 13.34 -4 12.68 -4 12 C-4.66 12 -5.32 12 -6 12 C-4.97379138 9.7897045 -3.94283206 7.92682503 -2.4375 6 C-0.96806014 3.95556194 -0.43835352 2.45477972 0 0 Z " fill="#F7BC91" transform="translate(145,40)"/>
<path d="M0 0 C4.24471883 6.36707824 8.96284829 16.60626653 7.578125 24.36328125 C7.38734375 24.90339844 7.1965625 25.44351563 7 26 C6.34 26 5.68 26 5 26 C5 23.36 5 20.72 5 18 C4.34 18 3.68 18 3 18 C3 14.7 3 11.4 3 8 C2.34 8 1.68 8 1 8 C0.67 5.36 0.34 2.72 0 0 Z " fill="#BE886E" transform="translate(397,84)"/>
<path d="M0 0 C1.49080078 0.16628906 1.49080078 0.16628906 3.01171875 0.3359375 C3.77097656 0.43132813 4.53023438 0.52671875 5.3125 0.625 C5.3125 0.955 5.3125 1.285 5.3125 1.625 C6.09625 1.7075 6.88 1.79 7.6875 1.875 C10.3125 2.625 10.3125 2.625 11.4765625 4.671875 C11.89035156 5.63867188 11.89035156 5.63867188 12.3125 6.625 C10.66701172 6.20927734 10.66701172 6.20927734 8.98828125 5.78515625 C7.53387007 5.41920763 6.0794421 5.05332573 4.625 4.6875 C3.90376953 4.50509766 3.18253906 4.32269531 2.43945312 4.13476562 C-1.25577248 3.20674093 -4.94095469 2.32701539 -8.6875 1.625 C-5.1388865 -0.74074234 -4.1110475 -0.48365265 0 0 Z " fill="#1D0905" transform="translate(325.6875,25.375)"/>
<path d="M0 0 C0 1.32 0 2.64 0 4 C-0.99 4 -1.98 4 -3 4 C-3 4.66 -3 5.32 -3 6 C-3.804375 6.28875 -4.60875 6.5775 -5.4375 6.875 C-8.1326468 7.73262568 -8.1326468 7.73262568 -9 10 C-10.65 10 -12.3 10 -14 10 C-4.28571429 0 -4.28571429 0 0 0 Z " fill="#E6BA98" transform="translate(280,194)"/>
<path d="M0 0 C0.33 1.32 0.66 2.64 1 4 C-4.34001821 5.33500455 -7.83955235 4.512545 -13 3 C-12.67 2.34 -12.34 1.68 -12 1 C-9.27734375 0.5859375 -9.27734375 0.5859375 -5.9375 0.375 C-4.83277344 0.30023438 -3.72804688 0.22546875 -2.58984375 0.1484375 C-1.73519531 0.09945312 -0.88054687 0.05046875 0 0 Z " fill="#DEB491" transform="translate(279,107)"/>
<path d="M0 0 C0.33 0.66 0.66 1.32 1 2 C-0.12312966 5.36938898 -1.53174093 6.53174093 -4 9 C-4.33 9.99 -4.66 10.98 -5 12 C-5.99 12 -6.98 12 -8 12 C-8 13.65 -8 15.3 -8 17 C-8.99 16.67 -9.98 16.34 -11 16 C-9.6020749 11.93064734 -7.66821145 9.06055399 -4.9375 5.75 C-4.22464844 4.87859375 -3.51179687 4.0071875 -2.77734375 3.109375 C-1.88187356 2.04661917 -0.98267919 0.98267919 0 0 Z " fill="#D3AC8D" transform="translate(230,234)"/>
<path d="M0 0 C1.45606519 4.52092968 0.27032841 7.51648796 -1 12 C2.3 12.66 5.6 13.32 9 14 C9 14.33 9 14.66 9 15 C7.58376784 15.05447047 6.16691809 15.09300508 4.75 15.125 C3.96109375 15.14820312 3.1721875 15.17140625 2.359375 15.1953125 C-0.20731941 14.9828378 -1.7916067 14.28654105 -4 13 C-3.71517632 11.58194169 -3.42181856 10.16559621 -3.125 8.75 C-2.96257812 7.96109375 -2.80015625 7.1721875 -2.6328125 6.359375 C-2.00849925 4.03168856 -1.15161458 2.10968048 0 0 Z " fill="#2D1911" transform="translate(109,109)"/>
<path d="M0 0 C1.32 0.33 2.64 0.66 4 1 C0.33333333 4.66666667 -3.33333333 8.33333333 -7 12 C-7.33 11.34 -7.66 10.68 -8 10 C-7.34 10 -6.68 10 -6 10 C-5.67 7.69 -5.34 5.38 -5 3 C-4.01 3.33 -3.02 3.66 -2 4 C-2 3.34 -2 2.68 -2 2 C-1.34 2 -0.68 2 0 2 C0 1.34 0 0.68 0 0 Z " fill="#1C0B06" transform="translate(230,230)"/>
<path d="M0 0 C0.66 0.33 1.32 0.66 2 1 C1 4 1 4 -0.671875 4.8671875 C-1.44015625 5.24101562 -2.2084375 5.61484375 -3 6 C-5.12284066 7.67737409 -7.19465905 9.36960115 -9.25 11.125 C-10.08144531 11.82689453 -10.08144531 11.82689453 -10.9296875 12.54296875 C-12.28947326 13.69175328 -13.64515165 14.84539653 -15 16 C-15.66 15.67 -16.32 15.34 -17 15 C-5.47835991 4.44191344 -5.47835991 4.44191344 0 0 Z " fill="#0A0807" transform="translate(238,198)"/>
<path d="M0 0 C0 0.99 0 1.98 0 3 C-1.11375 3.12375 -2.2275 3.2475 -3.375 3.375 C-7.03103677 3.6465813 -7.03103677 3.6465813 -9 6 C-10.32 5.34 -11.64 4.68 -13 4 C-8.62340682 -0.37659318 -5.88808394 -0.39919213 0 0 Z " fill="#150905" transform="translate(163,137)"/>
<path d="M0 0 C0.33 0.66 0.66 1.32 1 2 C4.63 2 8.26 2 12 2 C11.67 3.32 11.34 4.64 11 6 C8 7 8 7 6.0625 6.29296875 C5.381875 5.92816406 4.70125 5.56335938 4 5.1875 C3.319375 4.83042969 2.63875 4.47335938 1.9375 4.10546875 C0.24874367 3.14192431 -1.38224176 2.07850549 -3 1 C-2.01 0.67 -1.02 0.34 0 0 Z " fill="#DEB08F" transform="translate(283,112)"/>
<path d="M0 0 C0 3.10551666 -0.5393715 4.35261084 -2 7 C-2.99 7 -3.98 7 -5 7 C-5.309375 7.61875 -5.61875 8.2375 -5.9375 8.875 C-8 13 -8 13 -11.0625 14.125 C-12.031875 14.41375 -13.00125 14.7025 -14 15 C-13.04882866 13.8274869 -12.08882991 12.66212985 -11.125 11.5 C-10.59132813 10.8503125 -10.05765625 10.200625 -9.5078125 9.53125 C-8.76144531 8.77328125 -8.76144531 8.77328125 -8 8 C-7.34 8 -6.68 8 -6 8 C-5.7525 7.4225 -5.505 6.845 -5.25 6.25 C-3.83316683 3.6997003 -2.12372463 1.98214299 0 0 Z " fill="#391D13" transform="translate(377,199)"/>
<path d="M0 0 C0.33 0.99 0.66 1.98 1 3 C0.24203125 3.59748047 0.24203125 3.59748047 -0.53125 4.20703125 C-1.1809375 4.73683594 -1.830625 5.26664063 -2.5 5.8125 C-3.1496875 6.33457031 -3.799375 6.85664062 -4.46875 7.39453125 C-6.34509128 8.99204833 -6.34509128 8.99204833 -6 12 C-7.63790712 13.04644066 -9.31008021 14.0398183 -11 15 C-12.36984198 16.29579647 -13.7151049 17.61992749 -15 19 C-13.4928658 13.74512544 -10.06992802 10.52059306 -6.375 6.6875 C-5.45847656 5.71973633 -5.45847656 5.71973633 -4.5234375 4.73242188 C-3.02189664 3.1487655 -1.51406957 1.57166659 0 0 Z " fill="#0B0907" transform="translate(124,34)"/>
<path d="M0 0 C0.66 0.33 1.32 0.66 2 1 C1.34 2.98 0.68 4.96 0 7 C-0.66 7 -1.32 7 -2 7 C-1.938125 8.423125 -1.938125 8.423125 -1.875 9.875 C-2 13 -2 13 -4 15 C-4.66 14.67 -5.32 14.34 -6 14 C-4.45941767 8.98491285 -2.97068161 4.3852919 0 0 Z " fill="#CFA687" transform="translate(122,71)"/>
<path d="M0 0 C1.32 0.33 2.64 0.66 4 1 C4 6.94 4 12.88 4 19 C3.67 19 3.34 19 3 19 C2.86722656 18.13117188 2.73445313 17.26234375 2.59765625 16.3671875 C2.42105469 15.21476562 2.24445313 14.06234375 2.0625 12.875 C1.88847656 11.73804687 1.71445312 10.60109375 1.53515625 9.4296875 C1.04410734 6.28267331 0.52981281 3.14069217 0 0 Z " fill="#2B0D07" transform="translate(402,96)"/>
<path d="M0 0 C1.65 0 3.3 0 5 0 C4.06862408 1.29608947 3.1296434 2.58671632 2.1875 3.875 C1.66542969 4.59429687 1.14335937 5.31359375 0.60546875 6.0546875 C-1 8 -1 8 -4 10 C-4 8.68 -4 7.36 -4 6 C-3.34 6 -2.68 6 -2 6 C-2 4.68 -2 3.36 -2 2 C-1.34 2 -0.68 2 0 2 C0 1.34 0 0.68 0 0 Z " fill="#CF9678" transform="translate(316,250)"/>
<path d="M0 0 C2.31 0.33 4.62 0.66 7 1 C7.66 2.65 8.32 4.3 9 6 C9.66 6 10.32 6 11 6 C10.67 7.32 10.34 8.64 10 10 C8.33037631 8.52417192 6.6643694 7.04425109 5 5.5625 C4.071875 4.73878906 3.14375 3.91507813 2.1875 3.06640625 C1.465625 2.38449219 0.74375 1.70257813 0 1 C0 0.67 0 0.34 0 0 Z " fill="#2A100A" transform="translate(369,48)"/>
<path d="M0 0 C-2.97 2.64 -5.94 5.28 -9 8 C-9.33 6.68 -9.66 5.36 -10 4 C-6.62446636 -0.0739199 -5.26987994 -1.31746998 0 0 Z " fill="#21110B" transform="translate(260,209)"/>
<path d="M0 0 C5.57142857 5.14285714 5.57142857 5.14285714 6 9 C4.02 9 2.04 9 0 9 C0 6.03 0 3.06 0 0 Z " fill="#20100A" transform="translate(298,126)"/>
<path d="M0 0 C2.64 0.66 5.28 1.32 8 2 C7.67 2.66 7.34 3.32 7 4 C6.360625 3.814375 5.72125 3.62875 5.0625 3.4375 C4.381875 3.293125 3.70125 3.14875 3 3 C2.67 3.33 2.34 3.66 2 4 C-0.67058851 4.14115161 -3.32432238 4.04247107 -6 4 C-6.33 3.34 -6.66 2.68 -7 2 C-4.69 2 -2.38 2 0 2 C0 1.34 0 0.68 0 0 Z " fill="#100909" transform="translate(118,124)"/>
<path d="M0 0 C4.06225548 0.57823096 6.84762346 1.89117737 10.3125 4.0625 C11.19550781 4.61035156 12.07851563 5.15820312 12.98828125 5.72265625 C13.65214844 6.14417969 14.31601562 6.56570312 15 7 C13.02 7.99 13.02 7.99 11 9 C10.67 8.34 10.34 7.68 10 7 C9.34 7 8.68 7 8 7 C8 6.34 8 5.68 8 5 C7.34 5 6.68 5 6 5 C6 4.34 6 3.68 6 3 C4.68 3 3.36 3 2 3 C2 2.34 2 1.68 2 1 C1.34 0.67 0.68 0.34 0 0 Z " fill="#C79171" transform="translate(352,39)"/>
<path d="M0 0 C4.98012761 1.50912958 8.24259942 4.55661849 12 8 C10.02 8.99 10.02 8.99 8 10 C4 5.25 4 5.25 4 3 C2.68 2.67 1.36 2.34 0 2 C0 1.34 0 0.68 0 0 Z " fill="#23140E" transform="translate(286,116)"/>
<path d="M0 0 C0 1.32 0 2.64 0 4 C-2.97 4 -5.94 4 -9 4 C-9 3.01 -9 2.02 -9 1 C-5.8035914 -0.06546953 -3.34252724 -0.07427838 0 0 Z M-5 4 C-3 5 -3 5 -3 5 Z " fill="#E3B08D" transform="translate(192,26)"/>
<path d="M0 0 C0.99 0.33 1.98 0.66 3 1 C2.39009109 4.55780196 1.4216319 7.6828589 0 11 C-0.66 11 -1.32 11 -2 11 C-1.125 3.375 -1.125 3.375 0 0 Z " fill="#D4AA8C" transform="translate(213,261)"/>
<path d="M0 0 C1.125 3.75 1.125 3.75 0 6 C-0.99 6 -1.98 6 -3 6 C-3 6.66 -3 7.32 -3 8 C-4.65 8 -6.3 8 -8 8 C-7.04578192 6.85073734 -6.08647955 5.70569459 -5.125 4.5625 C-4.59132812 3.92441406 -4.05765625 3.28632813 -3.5078125 2.62890625 C-2 1 -2 1 0 0 Z " fill="#D5AE92" transform="translate(239,226)"/>
<path d="M0 0 C0.33 0 0.66 0 1 0 C1.55353075 10.55808656 1.55353075 10.55808656 -2 15 C-3.22487152 12.55025696 -2.98796191 11.3246727 -2.6875 8.625 C-2.56955078 7.46871094 -2.56955078 7.46871094 -2.44921875 6.2890625 C-1.98084469 3.90239122 -1.18250119 2.11402254 0 0 Z " fill="#210A06" transform="translate(407,134)"/>
<path d="M0 0 C0.66 0 1.32 0 2 0 C0.23570801 4.97209562 -2.3939166 9.43438061 -5 14 C-5.33 14 -5.66 14 -6 14 C-6.34546748 9.77177848 -5.52620593 7.65144061 -3.125 4.1875 C-2.59132813 3.39730469 -2.05765625 2.60710937 -1.5078125 1.79296875 C-0.76144531 0.90544922 -0.76144531 0.90544922 0 0 Z " fill="#1D0D08" transform="translate(124,64)"/>
<path d="M0 0 C0.66 0.33 1.32 0.66 2 1 C1.195625 1.45375 0.39125 1.9075 -0.4375 2.375 C-3.08856572 3.74725665 -3.08856572 3.74725665 -4 6 C-4.66 6 -5.32 6 -6 6 C-6.268125 6.639375 -6.53625 7.27875 -6.8125 7.9375 C-8 10 -8 10 -11 11 C-11 8 -11 8 -9.609375 6.46484375 C-8.99578125 5.96082031 -8.3821875 5.45679688 -7.75 4.9375 C-7.14671875 4.43089844 -6.5434375 3.92429688 -5.921875 3.40234375 C-3.99415079 1.99573198 -2.21784261 0.88438765 0 0 Z " fill="#210C08" transform="translate(366,212)"/>
<path d="M0 0 C1.485 0.99 1.485 0.99 3 2 C4.65549531 2.38499891 6.3222433 2.72793135 8 3 C8 5.31 8 7.62 8 10 C6.33333333 8.33333333 4.66666667 6.66666667 3 5 C2.401875 4.443125 1.80375 3.88625 1.1875 3.3125 C0 2 0 2 0 0 Z " fill="#E6B996" transform="translate(294,119)"/>
<path d="M0 0 C0 0.66 0 1.32 0 2 C-2.52475462 3.26237731 -4.31200466 3.09856404 -7.125 3.0625 C-8.03507813 3.05347656 -8.94515625 3.04445313 -9.8828125 3.03515625 C-10.58148438 3.02355469 -11.28015625 3.01195313 -12 3 C-8.62803192 -0.37196808 -4.5120049 -1.50400163 0 0 Z " fill="#22100B" transform="translate(220,113)"/>
<path d="M0 0 C2.31 0 4.62 0 7 0 C7 0.66 7 1.32 7 2 C8.98 2 10.96 2 13 2 C13.33 3.32 13.66 4.64 14 6 C9.27775484 4.46527032 4.64144669 2.76054874 0 1 C0 0.67 0 0.34 0 0 Z " fill="#2B0E08" transform="translate(339,32)"/>
<path d="M0 0 C0.99 0 1.98 0 3 0 C1.48328036 4.55015893 -2.16891053 6.50057264 -6 9 C-6 8.01 -6 7.02 -6 6 C-5.34 6 -4.68 6 -4 6 C-4 5.01 -4 4.02 -4 3 C-3.01 3 -2.02 3 -1 3 C-0.67 2.01 -0.34 1.02 0 0 Z " fill="#CC9173" transform="translate(328,240)"/>
<path d="M0 0 C0.66 0.33 1.32 0.66 2 1 C0.12013348 4.47775306 -1.47569447 7.07765153 -5 9 C-6.32 8.67 -7.64 8.34 -9 8 C-6.03 5.36 -3.06 2.72 0 0 Z " fill="#D5AE8A" transform="translate(249,217)"/>
<path d="M0 0 C1.65 0 3.3 0 5 0 C1.83047153 3.26008643 -1.39937989 6.22237877 -5 9 C-5 8.01 -5 7.02 -5 6 C-4.34 6 -3.68 6 -3 6 C-2.690625 5.38125 -2.38125 4.7625 -2.0625 4.125 C-1.375 2.75 -0.6875 1.375 0 0 Z " fill="#291711" transform="translate(267,198)"/>
<path d="M0 0 C0.66 0.33 1.32 0.66 2 1 C1.34 2.65 0.68 4.3 0 6 C-1.32 6 -2.64 6 -4 6 C-4.33 6.66 -4.66 7.32 -5 8 C-6.64363134 8.72159424 -8.31050386 9.39351421 -10 10 C-6.66666667 6.66666667 -3.33333333 3.33333333 0 0 Z " fill="#CBA78D" transform="translate(288,184)"/>
<path d="M0 0 C0 4.31618166 -2.13270348 5.92789659 -5 9 C-5.66 9 -6.32 9 -7 9 C-7 9.66 -7 10.32 -7 11 C-8.32 10.67 -9.64 10.34 -11 10 C-5.555 5.05 -5.555 5.05 0 0 Z " fill="#2B0F08" transform="translate(349,225)"/>
<path d="M0 0 C0.66 1.32 1.32 2.64 2 4 C1.34 4 0.68 4 0 4 C-0.061875 4.556875 -0.12375 5.11375 -0.1875 5.6875 C-1.33373872 8.94987173 -3.49390197 10.68667874 -6 13 C-6.66 12.67 -7.32 12.34 -8 12 C-7.50628906 11.38511719 -7.01257813 10.77023438 -6.50390625 10.13671875 C-5.54291016 8.92435547 -5.54291016 8.92435547 -4.5625 7.6875 C-3.92441406 6.88699219 -3.28632813 6.08648437 -2.62890625 5.26171875 C-0.83888645 3.01302723 -0.83888645 3.01302723 0 0 Z " fill="#CAA589" transform="translate(302,166)"/>
<path d="M0 0 C1.32 0 2.64 0 4 0 C3.47535095 4.61691161 2.92509086 6.09987886 0 10 C0 6.7 0 3.4 0 0 Z " fill="#D69A76" transform="translate(396,160)"/>
<path d="M0 0 C0 0.99 0 1.98 0 3 C-2.97 3.66 -5.94 4.32 -9 5 C-8.67 3.68 -8.34 2.36 -8 1 C-5.10765685 0.17361624 -3.11257569 0 0 0 Z " fill="#D9AD8C" transform="translate(224,108)"/>
<path d="M0 0 C0.66 0.33 1.32 0.66 2 1 C2.625 3.0625 2.625 3.0625 3 5 C2.34 5 1.68 5 1 5 C0.67 6.98 0.34 8.96 0 11 C-0.33 11 -0.66 11 -1 11 C-1.22174933 9.54364629 -1.42698698 8.08477044 -1.625 6.625 C-1.74101562 5.81289063 -1.85703125 5.00078125 -1.9765625 4.1640625 C-1.98429688 3.44992188 -1.99203125 2.73578125 -2 2 C-1.34 1.34 -0.68 0.68 0 0 Z " fill="#CFA884" transform="translate(145,33)"/>
<path d="M0 0 C1.45792884 -0.05399736 2.91642712 -0.09279177 4.375 -0.125 C5.18710937 -0.14820312 5.99921875 -0.17140625 6.8359375 -0.1953125 C9 0 9 0 11 2 C9.68 2 8.36 2 7 2 C7 2.66 7 3.32 7 4 C4.69 3.34 2.38 2.68 0 2 C0 1.34 0 0.68 0 0 Z " fill="#DCA27D" transform="translate(293,24)"/>
<path d="M0 0 C0.99 0.33 1.98 0.66 3 1 C2 3 2 3 0.1875 3.875 C-2.38820998 5.19965085 -4.03454804 6.89415861 -6 9 C-6.66 8.34 -7.32 7.68 -8 7 C-6.74057614 5.80040625 -5.46704714 4.61560557 -4.1875 3.4375 C-3.12595703 2.44556641 -3.12595703 2.44556641 -2.04296875 1.43359375 C-1.36878906 0.96050781 -0.69460937 0.48742187 0 0 Z " fill="#0C0806" transform="translate(251,187)"/>
<path d="M0 0 C0.33 1.32 0.66 2.64 1 4 C0.34 4 -0.32 4 -1 4 C-1 5.32 -1 6.64 -1 8 C-2.65 8.33 -4.3 8.66 -6 9 C-6 8.01 -6 7.02 -6 6 C-5.01 6 -4.02 6 -3 6 C-2.67 4.68 -2.34 3.36 -2 2 C-1.34 2 -0.68 2 0 2 C0 1.34 0 0.68 0 0 Z " fill="#E8B791" transform="translate(309,160)"/>
<path d="M0 0 C2.11688496 4.23376992 2.19576939 4.76045398 1 9 C0.67 9.99 0.34 10.98 0 12 C-0.99 12 -1.98 12 -3 12 C-2.01 8.04 -1.02 4.08 0 0 Z " fill="#CAA586" transform="translate(306,154)"/>
<path d="M0 0 C0.33 1.32 0.66 2.64 1 4 C0.01 4.66 -0.98 5.32 -2 6 C-3.19232613 8.05003955 -3.19232613 8.05003955 -4 10 C-4.99 10 -5.98 10 -7 10 C-5.33248852 6.05860922 -2.77289351 3.2107188 0 0 Z " fill="#2C110B" transform="translate(319,252)"/>
<path d="M0 0 C0.94875 0.04125 1.8975 0.0825 2.875 0.125 C0.5625 2.625 0.5625 2.625 -2.125 5.125 C-3.115 5.125 -4.105 5.125 -5.125 5.125 C-5.125 0.85616396 -4.22482433 0.16899297 0 0 Z " fill="#1D0C08" transform="translate(238.125,223.875)"/>
<path d="M0 0 C0.33 0 0.66 0 1 0 C1.0810206 2.10353495 1.13919907 4.20795952 1.1875 6.3125 C1.22230469 7.48425781 1.25710938 8.65601563 1.29296875 9.86328125 C1 13 1 13 -0.51171875 14.91796875 C-1.00285156 15.27503906 -1.49398438 15.63210937 -2 16 C-1.33333333 10.66666667 -0.66666667 5.33333333 0 0 Z " fill="#F1A472" transform="translate(359,136)"/>
<path d="M0 0 C0.66 0.33 1.32 0.66 2 1 C-1.96 4.465 -1.96 4.465 -6 8 C-6.33 7.01 -6.66 6.02 -7 5 C-4.88437775 2.67281553 -2.94982021 1.14186589 0 0 Z " fill="#22110B" transform="translate(279,190)"/>
<path d="M0 0 C2.52775351 3.79163027 2.22443035 6.80874031 2.125 11.1875 C2.11597656 11.93708984 2.10695313 12.68667969 2.09765625 13.45898438 C2.07412578 15.30612654 2.03825561 17.15310412 2 19 C1.67 19 1.34 19 1 19 C1 14.38 1 9.76 1 5 C0.34 5 -0.32 5 -1 5 C-0.67 3.35 -0.34 1.7 0 0 Z " fill="#DE9F85" transform="translate(403,107)"/>
<path d="M0 0 C3.63 0 7.26 0 11 0 C11.66 1.32 12.32 2.64 13 4 C8.71 3.01 4.42 2.02 0 1 C0 0.67 0 0.34 0 0 Z " fill="#30150F" transform="translate(325,28)"/>
<path d="M0 0 C0.33 0.66 0.66 1.32 1 2 C-0.6875 5 -0.6875 5 -3 8 C-5.75 8.375 -5.75 8.375 -8 8 C-5.33333333 5.33333333 -2.66666667 2.66666667 0 0 Z " fill="#D4AD91" transform="translate(274,196)"/>
<path d="M0 0 C2.49361571 1.20381448 4.68143083 2.45428722 7 4 C6.67 4.99 6.34 5.98 6 7 C3.00675737 5.9024777 2.15389099 5.32317108 0.75 2.375 C0.5025 1.59125 0.255 0.8075 0 0 Z " fill="#0C0A08" transform="translate(148,150)"/>
<path d="M0 0 C0.97608217 2.92824652 1.08226668 4.95613276 1 8 C0.01 8.33 -0.98 8.66 -2 9 C-2 8.34 -2 7.68 -2 7 C-2.66 7 -3.32 7 -4 7 C-2.79618552 4.50638429 -1.54571278 2.31856917 0 0 Z " fill="#E0B899" transform="translate(143,45)"/>
<path d="M0 0 C1.98 0 3.96 0 6 0 C4.35830472 2.02054804 2.69088222 4.02043058 1 6 C0.67 6 0.34 6 0 6 C0 4.02 0 2.04 0 0 Z " fill="#D89B75" transform="translate(362,208)"/>
<path d="M0 0 C0.33 0 0.66 0 1 0 C1 3.3 1 6.6 1 10 C-0.98 10.99 -0.98 10.99 -3 12 C-2.01 8.04 -1.02 4.08 0 0 Z " fill="#341711" transform="translate(403,150)"/>
<path d="M0 0 C0.99 0 1.98 0 3 0 C5.1519437 3.22791555 5.20086443 4.28400809 5 8 C4.34 8 3.68 8 3 8 C2.01 5.36 1.02 2.72 0 0 Z " fill="#150501" transform="translate(399,88)"/>
<path d="M0 0 C0.99 0 1.98 0 3 0 C3 0.66 3 1.32 3 2 C2.34 2 1.68 2 1 2 C1 3.65 1 5.3 1 7 C0.01 7.33 -0.98 7.66 -2 8 C-1.125 2.25 -1.125 2.25 0 0 Z " fill="#DDB496" transform="translate(115,88)"/>
<path d="M0 0 C0.99 0 1.98 0 3 0 C2.67 1.98 2.34 3.96 2 6 C1.01 6 0.02 6 -1 6 C-0.67 4.02 -0.34 2.04 0 0 Z " fill="#E5B58D" transform="translate(218,250)"/>
<path d="M0 0 C1.32 0.66 2.64 1.32 4 2 C2.68 3.32 1.36 4.64 0 6 C-0.66 5.34 -1.32 4.68 -2 4 C-1.34 2.68 -0.68 1.36 0 0 Z " fill="#1A0F09" transform="translate(242,218)"/>
<path d="M0 0 C-1.6454378 1.68762851 -3.31288577 3.3540349 -5 5 C-5.33 5 -5.66 5 -6 5 C-6 3.35 -6 1.7 -6 0 C-3.50907189 -1.24546405 -2.58919267 -0.7767578 0 0 Z " fill="#DC997A" transform="translate(374,203)"/>
<path d="M0 0 C2.64 0 5.28 0 8 0 C8 0.66 8 1.32 8 2 C8.66 2.33 9.32 2.66 10 3 C8.5199159 2.88637738 7.04089926 2.75877092 5.5625 2.625 C4.73878906 2.55539063 3.91507813 2.48578125 3.06640625 2.4140625 C2.38449219 2.27742187 1.70257813 2.14078125 1 2 C0.67 1.34 0.34 0.68 0 0 Z " fill="#DCB99A" transform="translate(162,136)"/>
<path d="M0 0 C1.98 0.99 1.98 0.99 4 2 C4 2.99 4 3.98 4 5 C4.66 5 5.32 5 6 5 C6 6.65 6 8.3 6 10 C3.25722422 6.80009492 1.3697164 3.99500618 0 0 Z " fill="#240D07" transform="translate(392,74)"/>
<path d="M0 0 C0 2.62113708 -0.31292445 4.50935112 -1 7 C-2.65 7.33 -4.3 7.66 -6 8 C-2.25 2.25 -2.25 2.25 0 0 Z " fill="#C5A188" transform="translate(135,53)"/>
<path d="M0 0 C0.75 1.75 0.75 1.75 1 4 C-0.9375 6.25 -0.9375 6.25 -3 8 C-3 3.73173127 -2.62386487 3.06117568 0 0 Z " fill="#1F0F0A" transform="translate(143,41)"/>
<path d="M0 0 C0.66 0.33 1.32 0.66 2 1 C-0.33333333 3.33333333 -2.66666667 5.66666667 -5 8 C-5.33 7.34 -5.66 6.68 -6 6 C-4 4 -2 2 0 0 Z " fill="#08080B" transform="translate(196,374)"/>
<path d="M0 0 C0.33 0 0.66 0 1 0 C1 2.64 1 5.28 1 8 C0.01 8 -0.98 8 -2 8 C-1.125 1.125 -1.125 1.125 0 0 Z " fill="#2E100A" transform="translate(301,280)"/>
<path d="M0 0 C0.99 0 1.98 0 3 0 C1.25 5.75 1.25 5.75 -1 8 C-1.04241723 5.66705225 -1.04092937 3.33297433 -1 1 C-0.67 0.67 -0.34 0.34 0 0 Z " fill="#1D0C06" transform="translate(215,250)"/>
<path d="M0 0 C0.99 0.99 1.98 1.98 3 3 C2.01 4.98 1.02 6.96 0 9 C-0.66 8.67 -1.32 8.34 -2 8 C-1.34 5.36 -0.68 2.72 0 0 Z " fill="#070609" transform="translate(402,52)"/>
<path d="M0 0 C2 2 2 2 2.3125 4.4375 C2 7 2 7 -1 10 C-0.67 6.7 -0.34 3.4 0 0 Z " fill="#260C07" transform="translate(298,288)"/>
<path d="M0 0 C1.1875 1.625 1.1875 1.625 2 4 C0.625 7.25 0.625 7.25 -1 10 C-1.33 10 -1.66 10 -2 10 C-2 8.02 -2 6.04 -2 4 C-1.34 4 -0.68 4 0 4 C0 2.68 0 1.36 0 0 Z " fill="#D69C78" transform="translate(394,168)"/>
<path d="M0 0 C0.66 0 1.32 0 2 0 C2 0.66 2 1.32 2 2 C1.34 2 0.68 2 0 2 C-0.66 3.98 -1.32 5.96 -2 8 C-2.66 8 -3.32 8 -4 8 C-2.25 2.25 -2.25 2.25 0 0 Z " fill="#1E0B06" transform="translate(402,160)"/>
<path d="M0 0 C0.33 0.99 0.66 1.98 1 3 C-0.375 5.5625 -0.375 5.5625 -2 8 C-2.33 8.66 -2.66 9.32 -3 10 C-3.66 10 -4.32 10 -5 10 C-3.66511872 6.40608886 -2.03977277 3.24509304 0 0 Z " fill="#331D14" transform="translate(187,132)"/>
<path d="M0 0 C0.99 0 1.98 0 3 0 C2.34 3.3 1.68 6.6 1 10 C0.67 10 0.34 10 0 10 C0 6.7 0 3.4 0 0 Z " fill="#240F0B" transform="translate(114,80)"/>
<path d="M0 0 C0.33 1.32 0.66 2.64 1 4 C0.34 4 -0.32 4 -1 4 C-1 4.66 -1 5.32 -1 6 C-2.32 5.67 -3.64 5.34 -5 5 C-3.35 3.35 -1.7 1.7 0 0 Z " fill="#33140D" transform="translate(325,246)"/>
<path d="M0 0 C-1.07401108 2.91517292 -1.77810176 4.77810176 -4 7 C-4.33 5.35 -4.66 3.7 -5 2 C-2 0 -2 0 0 0 Z " fill="#180A07" transform="translate(222,243)"/>
<path d="M0 0 C-1.1875 1.5 -1.1875 1.5 -3 3 C-5.6875 3.1875 -5.6875 3.1875 -8 3 C-6.14481495 -0.71037009 -3.79223618 -1.26407873 0 0 Z " fill="#CBAA8B" transform="translate(151,141)"/>
<path d="M0 0 C1.32 0.66 2.64 1.32 4 2 C3.67 2.99 3.34 3.98 3 5 C1.35 5.33 -0.3 5.66 -2 6 C-1.34 4.02 -0.68 2.04 0 0 Z " fill="#090807" transform="translate(104,59)"/>
</svg>
