<?xml version="1.0" encoding="UTF-8"?>
<svg version="1.1" xmlns="http://www.w3.org/2000/svg" width="1100" height="1100">
<path d="M0 0 C363 0 726 0 1100 0 C1100 363 1100 726 1100 1100 C737 1100 374 1100 0 1100 C0 737 0 374 0 0 Z " fill="#F5F6FA" transform="translate(0,0)"/>
<path d="M0 0 C6.65224785 6.15410761 12.41303727 12.87516251 18 20 C19.07894531 21.35351562 19.07894531 21.35351562 20.1796875 22.734375 C26.87695783 31.36217521 32.52224072 40.56371167 38 50 C38.39719238 50.6815918 38.79438477 51.36318359 39.20361328 52.06542969 C65.02073095 96.95614134 70 145.92190971 70 197 C-27.68 197 -125.36 197 -226 197 C-226 122.09 -226 47.18 -226 -30 C-203.725 -32.475 -203.725 -32.475 -181 -35 C-179.35 -35.33 -177.7 -35.66 -176 -36 C-174.58992283 -36.15614272 -173.17666248 -36.28580234 -171.76171875 -36.38891602 C-170.95370316 -36.44887756 -170.14568756 -36.50883911 -169.31318665 -36.57061768 C-168.01347176 -36.66134552 -168.01347176 -36.66134552 -166.6875 -36.75390625 C-165.77409348 -36.81930603 -164.86068695 -36.88470581 -163.91960144 -36.9520874 C-104.88159592 -41.11126206 -46.44830602 -42.00260574 0 0 Z " fill="#DEEBF8" transform="translate(226,903)"/>
<path d="M0 0 C102.63 0 205.26 0 311 0 C311 92.07 311 184.14 311 279 C299.72106109 279 299.72106109 279 295.58984375 278.484375 C294.67203125 278.37013184 293.75421875 278.25588867 292.80859375 278.13818359 C244.82799053 271.6510102 203.35617702 247.43137415 169.7890625 212.79296875 C167.93082964 210.93067862 165.99526175 209.21407621 164 207.5 C158.50744509 202.75984987 153.40965063 197.69667573 148.6875 192.1875 C144.96992585 187.85741936 140.92340403 183.88991218 136.84375 179.90625 C134.0141035 177.08012046 131.41309131 174.07435139 128.79492188 171.05322266 C125.93433031 167.7809736 122.9764347 164.60427675 120 161.4375 C119.33427979 160.72859619 118.66855957 160.01969238 117.98266602 159.28930664 C110.8085194 151.7076575 103.4101314 144.35137619 95.98242188 137.01928711 C91.39569908 132.47411072 86.9649124 127.89633844 82.76782227 122.99047852 C79.20340918 118.97712955 75.32406186 115.26365014 71.5 111.5 C66.30822441 106.39024299 61.23374239 101.26334707 56.48828125 95.73339844 C54.62697711 93.56554092 52.6885322 91.47380455 50.75 89.375 C45.16601341 83.16847436 40.04220455 76.64884542 35 70 C34.47325684 69.30841797 33.94651367 68.61683594 33.40380859 67.90429688 C25.23256215 57.10649158 18.17161915 46.05346475 12 34 C11.66242676 33.3493457 11.32485352 32.69869141 10.97705078 32.02832031 C6.25537468 22.83135762 0 10.56689496 0 0 Z " fill="#FEF9D1" transform="translate(789,0)"/>
</svg>
